<?xml version="1.0" encoding="UTF-8"?>
<svg id="Layer_1" xmlns="http://www.w3.org/2000/svg" version="1.1" viewBox="0 497 2565.83 850">
  <!-- Generator: Adobe Illustrator 30.1.0, SVG Export Plug-In . SVG Version: 2.1.1 Build 136)  -->
  <defs>
    <style>
      .st0 {
        fill: #7a7b89;
      }

      .st1 {
        fill: #585a66;
      }

      .st2 {
        fill: #010825;
      }

      .st3 {
        fill: #87858b;
      }

      .st4 {
        fill: #fcfbe4;
      }

      .st5 {
        fill: #777680;
      }

      .st6 {
        fill: #f1f1f2;
      }

      .st7 {
        fill: #d4aebd;
      }

      .st8 {
        fill: #fbf8f9;
      }

      .st9 {
        fill: #fcfbf8;
      }

      .st10 {
        fill: #fbf9f9;
      }

      .st11 {
        fill: #b09ead;
      }

      .st12 {
        fill: #faf8f9;
      }

      .st13 {
        fill: #fbf0c4;
      }

      .st14 {
        fill: #fdfcf9;
      }

      .st15 {
        fill: #fde5a5;
      }

      .st16 {
        fill: #fdfdfc;
      }

      .st17 {
        fill: #dcdbdc;
      }

      .st18 {
        fill: #848392;
      }

      .st19 {
        fill: #919197;
      }

      .st20 {
        fill: #6f6c7c;
      }

      .st21 {
        fill: #8a8990;
      }

      .st22 {
        fill: #fde78c;
      }

      .st23 {
        fill: #fcfbfc;
      }

      .st24 {
        fill: #787684;
      }

      .st25 {
        fill: #f7f7f7;
      }

      .st26 {
        fill: #4c4e5b;
      }
    </style>
  </defs>
  
  <g>
    <path class="st13" d="M865.58,642.57l-3.42,6.92c-1-2.73.63-6.16-.76-8.65-1.59-2.86-.06-3.82.59-6.49l4.75-19.44c.67,6.66-1.56,12.93.52,19.15,1,3,4.12,1.39,6.87.33-1.17,2-2.41,5.04-4.34,6.03-1.56.5-3.11-.11-4.22,2.14Z"/>
    <path class="st13" d="M736.45,700.41c-.26-.84,0-1.02.78-.55l23.25,15.3c-1.14,1.22-2.15,2.09-3.53,2.73l-20.5-17.48Z"/>
    <path class="st13" d="M1946.03,1021.73c-5.59,1.3-18.43,10.26-17.61,2.6,5.63-1.16,11.14-2.61,17.61-2.6Z"/>
    <path class="st13" d="M737.23,699.85l-.78.55c-4.48-3.72-9.43-7.04-13.44-11.14l9.56,6.57c1.75,1.2,3.25,3.09,4.66,4.02Z"/>
    <path class="st13" d="M928.95,680.85c-.04-.74.25-1.36.05-1.89-.38-1-1.72-.54-2.32-1.75,2.25.31,4.02.44,5.4-1.73.31,2.63-1.19,3.94-3.13,5.37Z"/>
    <path class="st13" d="M834.33,717.53c-1.8-2.63-1.6-5.86.67-7.43.21,2.48,1.18,4.51-.67,7.43Z"/>
    <path class="st13" d="M1010.86,666.95l-.93-.9c2.47-1.19,4.42-3.66,8.03-3.86-1.82,2.77-4.83,3.3-7.1,4.76Z"/>
    <g>
      <path class="st13" d="M693.21,832.63c1.6-1.62,2.25-4.01,1.55-6.48-.59-2.05-3.73-3.86-6.58-3.58l-26.93,2.65,26.05-6.53c2.68-.67,5.59-3.87,5.45-6.54-.16-3.1-3.22-4.22-5.35-5.91,1.89-.57,3.41-1.17,5.03-2.75.81.7,2.87,1.75,2.79,2.95-.11,1.82-1.5,3.32-1.17,5.11,1,5.48,7.52,5.01,12.55,5.71-3.38,1.53-6.68,2.81-9.06,6.01-4.73,6.37,3.68,6.77.04,10.99-1.13,1.3-1.92-.06-4.36-1.63Z"/>
      <circle class="st4" cx="694.53" cy="819.09" r="1.63"/>
    </g>
    <g>
      <path class="st13" d="M916.14,1189.42c-1.36.38-1.63.38-.89-.87l29.56-17.93,3.8-30.69c1.73-.18,2.7.48,4.18.11l11.18-50.3c3.71-16.69,7.65-32.7,10.62-49.04,1.78-1.96,1.32.98.96,2.88l-9.86,72.23,4.71-8.86-5.07,36.56c29.37-14.83,58.65-28.16,89.59-39.08l-39.87,44.52c7.05-2.06,12.71-5.39,19.23-8.53,25.03-12.05,49.92-22.67,75.78-33.31,66.48-27.35,140.39-50.86,211.18-65.48-1.34-2.29-2.05-4.72-3.33-6.52-.38-.8-.13-1.04.74-.74,5.38,6.45,10.57,13.06,15.98,19.97l18.24,23.29c-6.74-5.11-12.29-12.27-18.97-19.02-58.77,13.16-115.02,31.94-170.37,54.65-44.87,18.41-88.3,38.9-130.6,62.62-44.18,24.77-86.93,50.21-129.81,78.96l51.76-59.91c1.86-2.16,3.09-3.77,4.99-5.81l30.03-32.18c-26.43,9.73-49.55,21.88-73.75,32.49Z"/>
      <path class="st10" d="M1175.37,1002.26c1.31-.75,1.64-.06.98,2.06-1.43,8.52-3.28,16.28-4.13,24.85-.2,1.99,1.04,5.51-.45,7.29-21.88,7.39-43.24,14.99-64.41,24.37-1.23-2.9,1.15-4.78.49-7.76l-3.87,8.4c-.78,1.69-3.84,1.57-4.51,3.16l-3.83,9.07c-.94-8.92,1-16.28,2.55-24.89l31.03-179.11,70.43-20.55-28.32,163.69c2.67-2.96,2.99-7.14,4.05-10.58Z"/>
      <polygon class="st8" points="1812.07 976.43 1752.66 928.24 1755.3 905.98 1769.63 796.88 1841.09 775.46 1814.19 956.9 1812.07 976.43"/>
      <path class="st13" d="M1451.13,759.27l34.69-42.02-16.65,4.23c21.98-12.89,11.34,1.75,25.27-13.08l-32.5,2.27c-47.89,3.35-94.83,9.12-142.32,16.73-14.76,2.37-28.27,3.68-42.45,4.15l27.13,9.87-37.48,7.35c-8.08,1.59-15.49,3.55-24.16,4.57,13.54-16.42,14.16-10.67,35.83-15.91l-15.99-13.69,65.95-30.54c4.59-2.13,8.25-4.89,13.36-5.92-6.33,5-13.51,7.25-20.25,11.46-11.25,7.04-22.84,12.93-32.52,23.45l97.94-13.55c42.96-5.94,85.31-9.01,128.94-11.34l-39.45,44.86,66.08-16.43c1.35-.34,1.47,2.24,2.69,2.71l75.53-19.64c25.81-6.71,70.29-12.98,96.6-6.85l186.08-57.98-7.63,26.55,91.18-25.65c6.79-1.91,12.5-4.8,19.6-5.39-39.86,15.24-78.45,32.32-116.9,51.14-.76.37-1.38.19-1.98.39-1.04.34.28.98,1.49,1.71l-7.67,33.82c-5.99-4.03-11.48,4.11-10.41-.77l6.51-29.85c-2.59.08-4.26,1.37-6.54,2.08-.84.68-1.11-.11-.56-.93l18.4-35.94-24.59,14.4c2.17-3.63,5.22-6.13,8.38-8.92,1.49-.67,1.03-1.95-.48-1.48l-20.45,7.89c-1.8.41-1.76-.05-.23-.9,1.25-1.35,3.57-1.4,3.51-3.57l-102.7,34.21c-.68,3.31.74,6.08-.19,8.81-.38,1.11-2.57,1.18-3.4.99-1.73-.41-3.24-4.21-5.72-5.67-1.36-.8-2.92.05-4.51.97,1.28,2.54,3.71,3.65,5.63,5.76-3.53.79-3.72,3.21-3.35,6.16.07.57-.85,1.31-1.51.99-15.52-7.59-31.72-11.13-48.99-10.98-26.94.24-62.86,6.27-88.48,13.91l-56.76,16.93c-.24,2.51,2.41,3.84,5.03,3.59-3.12,1.83-6.55,2.9-10.35,3.48l-1.92-10.28c-6.77.11-3.91,2.46-9.61.34-.72-.27-.92,1.81-1.7,2.01l-75.41,19.51Z"/>
      <path class="st13" d="M789.25,1030.98c.13,3.7-.86,5.08-2.97,4.13l-14.31,8.61c-1.16.7-1.29,2.59-2.36,3.35-12.34,8.65-23.71,14.35-29.98,27.85l43.24-19.15c6.27-2.78,12.25-4.75,17.98-8.12-2.66,4.54-6.05,6.64-9.09,10.22-.58-1.01-.92-2.63-1.97-2.38-4.93,1.18-4.14,12.41-5.32,19.2l31.37-16.72-2.94,12.43-20.13,110.04-7.59,39.79c2.27-.57.65-3.59,3.41-3.69-3.28,11.41-6.41,22.12-8.47,33.92,24.45-16.33,46.9-32.2,71.85-46.13l78.49-43.82,13.3-79.65c2.8-16.78,4.78-32.74,9.83-49.83.3,16.74-2.37,31.8-3.15,48.18-1.45,30.51-4.68,59.95-9.46,90.15-62.9,31.54-119.45,66.38-179.24,105.97l24.44-112.6c2.78,2.6-1.37,4.87,1.01,7.78-1.42-4.3,2.96-6.76,3.71-9.41,4.73-16.66,6.99-33.29,10.81-50.21l10.87-48.22c-7.79,4.03-10.33,9.96-14.73,12.66l-26.07,16c-1.5.92-1.13,4.45-.78,5.59l28.14-12.81c1.21,2.86-1.02,4.83-3.76,6.13l-16.24,7.69c-17.79,8.43-35.41,16.1-52.45,25.11-.93.46-1.52.32-1.77-.42l40.42-31.78c3.04-2.39,5.86-4.94,3.96-8.75-1.47.48-1.51.13-.11-1.05,2.75-1.39,4.5-14.47,5.49-19.75-7.92,4.44-34.63,17.11-41.15,18.57-1.78.4-3.56.8-6.13,2.04l-86.2,41.7c5.65-5.12,11.88-8.52,18.34-12.67l62.46-40.18.25,10.43c2.44-3.99,2.74-8.32,4.21-12.96l51.69-29.85,4.99-34.52c1.76-1.66,4.11-2.11,5.42-4.49-1.22-.95-4.43-.94-4.27-2.74l2.24-24.42c2.87-.94,4.68-2.03,7.46-2.49l-1.71,8.54c1.96.04,2.95-1.55,4.7-1.18l-7.75,53.91Z"/>
      <path class="st13" d="M1870,1056.03c-1.44-1.21-.76-1.44,2.04-.69l23.93,7.27c3.75,1.14,7.89.37,11.65.49-7.54-7.93-16.08-12.67-24.07-18.96l6.44,1.37c3.37.72,6.89-.49,10.81-.37-4.54-2.05-9.03-3.55-13.72-4.58-2.03-.54-2.03-1.22-.01-1.81-2.48-2.85,5.49-6.8,8.1-5.31,2.43,2.51,5.35,4.69,7.5,7.71-3.27.8-5.65-1.95-8.88-.03,5.14,2.33,10.89-.47,14.13,2.55.86.8-1.04,3.13-.16,4.12l23.48,26.18-53.63-1.93c-30.33-1.09-59.78-1.36-90.71.18,14.27,17.09,29.51,28.63,43.67,45.58-75.43-36.97-146.52-62.77-229.52-74.33-40.66-5.67-81.04-7.78-122.08-3.72l6.79,8.32-9.46-7.55c-6.7-.24-22.39,3.64-27.2,1.46,5.18-.32,9.67-1.39,14.62-2.1,3.76-.54,7.56.26,10.9-1.81l-24.02-25.23,34.51-2.83,2.52,19.35c25.27-2.78,49.71-5.38,74.81-5.73,1.02-.01,1.35,2.74,2.25,2.83,29.35-2.46,58.39-1.22,87.12,5.58l47.98,11.34-16.11-25.93,28.25,36.09c-13.56-3.65-26.02-7.96-39.96-9.85l40.09,15.7c3.23,1.26,6.18,2.23,7.49,5.36.96-1.83,2.16-2.29,3.62-1.44,4.97,2.89,11.51,3.24,15.92,6.68,2.36,1.84,3.56,1.14,5.88,1.93,19.37,6.64,36.81,16.32,56.33,25.41-10.71-11.06-25.09-21.55-38.25-34.82,22.18-1.34,43.52-1.05,65.62-.96l54.97.22c-4.58-2.56-9.06-4.14-13.61-5.74Z"/>
      <path class="st13" d="M1895.16,1033.43c2.54.39-5.73,2.07-8.1,5.31-1.03,1.05-2.11.53-1.72-.92l-15.29-15.53c-11.8-11.98-23.27-23.81-35.75-34.4-1.73,1.63-.95,4.21-3.03,4.76l12.14-88.16,19.46-126.1c-3.18.13-4.7,1.38-7.26,1.79.57-3.05.94-5.62,1.89-8.49l15.57-6.03c.19-.96,1.09-1.61,2.7-1.94.26-1.42,1.88-1.7,4.86-.83,18.24-3.6,34.33-8.35,52.96-14.26-5.19,4.05-11.39,5.14-17.41,7.7l-41.93,17.82-3.84,20.08-10.46,65.01-3.67,27.74,44.6-11.4-45.92,20.39-3.46,27.04c6.98-1.72,12.54-5.28,19.6-6.18-6.37,3.87-13.01,6.06-19.84,9.19-1.06,1.41-1.35,4.73-.82,6.34l31.08-6.59c2.45-.52,4.98.56,7.69-.2,8.43-2.35,16.61-3.89,25.27-5.64l71.93-14.52c-47.25,18.96-93.79,38.44-140.05,59.69-1.54.71-1.49,1.67-1,2.83.33.79,1.06.38,2.18.19l43.39-6.97-47.77,18.63,52.03,53.63Z"/>
      <path class="st13" d="M858.38,784.15c-.23,2.54-2.94,3.23-4.9,1.78-2.92-.75-2.54-5.73.19-6.48.51-1.73.18-2.92-.98-3.58l2.75-6.14c-3.33,0-.55-13.21.1-13.57l29.3-12.03,6.36-.74,14.68-8.21,2.54.62c33.78-12.44,67.33-25.1,102.8-35.36l-5.08,25.83c1.53.13,2.4-.76,3.47-.44l-6.23,35.53c1.78.12,4.71-.78,5.05-2.94l5.86-37.7,42.74-16.76c39.86-15.63,79.94-28.13,122.19-39.13l-9.6,10.28c34.35-8.36,67.25-16.67,102.05-22.65-24.58,14.4-51.08,25.6-78.19,34.69l19.57-11.62c-18.88,2.1-38.32,9.66-56.9,15.74l6.68-12.1c-47.71,13.83-93.49,29.91-138.91,48.32-1.14,4.23-.13,8.53-2,11.91-1.46,1.71-6.47,1.25-7.35,3.79-1,2.88-.25,6.16-.65,9.17,2.36.45,3.61-.78,6.34-1.1l-1.98,14.96-23.18,9.5,5.19-25.23c-2.24,2.49-3.16,5.28-6.12,5.7l4.94-26.63c-3.38.61-5.25,2.65-8.41,2.79,1.4-5.85,4.66-9.9,6.84-16.02-5.21,1.19-10.38,2.96-15.44,5.21-3.53,1.57-5.63,4.78-9.39,6.13.75-3.01,4.3-2.53,4.69-5.56-11.98,2.88-22.17,8.05-33.3,13.28-.53-2.3,3.44-.88,2.29-3.67-28.96,9.88-56.56,21.16-84.58,32.49l-3.42,19.93Z"/>
      <path class="st10" d="M1844.08,708.31c-.03,1.71,1.21,1.73,2.82,1.63.61-2.48,5.59-5.3,7.78-3.8,2.57,1.76-1.42,5.12-1.9,7.13-3.9,16.3-6.56,32.24-9.63,48.88-5.21,2.05-10.31,2.92-15.66,4.58l-56.52,17.55,7.76-58.33,13.53-5.77-13.36,1.53c-3.29.38-6.57-2.25-11.02-2.25l77.38-27.2,15.1-5.4c-5.66,7.55-11.66,13.5-16.28,21.44Z"/>
      <path class="st10" d="M1202.31,835.22l-70.58,20.66,11.29-58.79c.85-2.41,0-4.28-.15-6.94l56.4-12.7,14.18-2.84-13.19,17.34c4.56-.87,7.36-3.51,11.54-4.79l-9.47,48.06Z"/>
      <path class="st13" d="M744.13,1135.83c-.99.27-1.35-.09-1.07-1.08l13.14-7.2c4.3-2.36,7.84-5.46,11.63-7.97-.38-1.64.95-3,3.97-4.1l.2-1.58c8.07-4.92,15.78-10.15,24.88-14.95l-5.94,33.1c-41.9,19.88-82.05,41.6-122.96,64.56,11.72-10.53,24.53-18.33,36.9-27.84l44.7-34.41c-2.11-.01-3.93.74-5.46,1.48Z"/>
      <path class="st13" d="M1878.56,762.08c-.06.71-.74,1.1-2.05,1.18.37-7.51,1.35-14.97,2.92-22.38l-.95.19c-.22.84-.51.81-.87-.03-1.15-2.94-.87-9.71,1.09-12.58,17.61-5.24,35.37-9.36,53.77-13.47l49.06-11.48-28.88,13.56-62.77,30.29c8.61.39,15.4-3.32,23.53-5.25l-34.83,19.97Z"/>
      <path class="st13" d="M1202.13,705.54c-.05-1.99-1.64-2.51-4.78-1.57-1.46-.44-2.84,1.26-4.97-.14,8-3.87,15.02-8.93,22.96-13.28,8.48-4.64,17.04-8.11,26.24-11.78-13.4,14.46-52.05,48.07-60.87,62.24l-8.21,13.19,38.82-7.05c-.9,3.72-1.9,6.27.02,9.07-3.3,1.48-5.95,3.05-9.99,4.02.1-1.67,2.35-1.32,1.63-3.2l-46.29,9c3.5-9.77,8.35-17.88,13.1-26.37-1.57-.79-2.49,1.19-4.08-.24,5.04-1.84,9.51-4.79,12.42-9.3-1.88-.24-2.84,1.19-4.54.59,9.93-8.15,19.51-16.33,28.53-25.18Z"/>
      <path class="st13" d="M732.6,1188.23c-.8.4-1.05.14-.77-.73l43.09-35.12-27.28,13.15,42.51-30.68-4.04,25.56c-18.71,8.71-36.03,18.28-53.51,27.82Z"/>
      <path class="st13" d="M1876.5,729.55l1.03.33-.74,11.15h.83s.87.03.87.03l.82.42c-1.34,6.79-2.28,13.6-2.82,20.43,2.27,1.57-3.53,2.99-5.65,2.89-3.2,1.23-6.52,1.68-10.43,1.52,7.32-3.37,5.05-15.81,5.32-17.58.7-4.46,3.51-8.53,3.12-13.24-1.42-.51-2.69.13-3.77-1.02,3.84-2.48,7.51-4.14,11.41-4.94Z"/>
      <path class="st25" d="M741.65,762.1c-.65-4.69-1.04-10.38-4.43-14.34-2.98-3.47-7.76-3.01-12.1-4.91,3.1-1.62,12.28-1.97,14.19-7.68l4.22-12.64c.88,4.67.77,9.49,3.15,13.89,2.5,4.62,7.57,5.38,12.97,6.85-14.61,3.63-12.74,4.74-17.99,18.84Z"/>
      <path class="st25" d="M842.1,683.11c-3.87-13.79-.82-14.72-14.73-19.61,15.07-2.44,12.52-9.02,16.22-20.76,1.75,5.5.65,10.85,3.43,15.47,2.43,4.03,7.39,4.12,11.46,5.4-14.47,4.33-12.14,7.21-16.38,19.5Z"/>
      <path class="st13" d="M1245.53,685.32c1.67-3.38,9.72-4.27,9.47-10.67l44.93-18.54c-2.7,3.3-7.08,4.22-10.98,6.28l-43.42,22.93Z"/>
      <path class="st13" d="M1631.71,678.72c-2.78,1.41-4.8,2.55-7.72,2.53,1.27-1.27.57-2.8.42-4.35l38.28-15.33c3.88-1.56,6.98-3.85,11.38-4.18-2.82,2.59-6.37,3.07-9.73,4.78l-32.63,16.55Z"/>
      <path class="st13" d="M1713.94,886.73l28.02-29.68c4.45-3.05,6.02-7.93,10-11.34-8.69,16.77-21.76,30.26-38.01,41.01Z"/>
      <path class="st6" d="M787.91,919.48c-3-6,1.96-9.85-9.38-13.82,8.92-1.06,8.69-3.08,11.07-10.19,1.46,6.06-.31,8.13,8.69,10.61-5.95,1.81-8.7,6.2-10.39,13.41Z"/>
      <path class="st13" d="M1421.26,789.65c-12.6,13.2-23.91,26.57-36.24,38.69,1.33-4.39,4.72-6.13,7.03-9.2,8.5-11.33,18.32-21.06,28.74-30.09,1.45-1.42,1.8-.87.47.59Z"/>
      <path class="st13" d="M1881.94,851.8c-1.62-1.55-1.98-3.17-2.77-4.69l21.47-6.29c3.56-1.04,6.78-3.4,10.84-2.46-9.93,4.11-19.42,7.93-29.54,13.44Z"/>
      <path class="st13" d="M1872.04,1055.34c-.62.13-2.11-.32-2.04.69l-34.81-12.22c8.1,1.02,15.36,3.39,22.75,6.19l14.1,5.34Z"/>
      <path class="st13" d="M729.78,942.59c-6.74,7.68-12,15.56-19.55,22.25.91-2.74,18.8-25,18.93-24.95.53.17,1.17.23,1.29.57.16.45.07,1.45-.67,2.13Z"/>
      <path class="st13" d="M787.2,736.22c-5.81-3.29-11.29-6.36-16.52-10.31-1.43-1.08-1.18-4.54-3.7-4.76,1.39.51,3.63-.07,4.54.6,5.77,4.29,10.3,9.45,15.68,14.47Z"/>
      <path class="st13" d="M1878.56,762.08c.66.2,1.28.86,2.05.81-2.3.36-5.27,1.88-7.56,2.77.09-1.09-1.54-.6-2.21-.84l4.85-1.87c-.39-2.49,2.79-21.89,2.79-21.88.91-1.89.35-4.17,1.94-6.05.99,6-3.98,23.59-3.43,26.52.14.74.98.36,1.58.54Z"/>
      <path class="st13" d="M1154.34,683.35c-8.81,6.86-19.08,11.18-30.02,14.39l30.02-14.39Z"/>
      <path class="st13" d="M1078.57,1109.79c.3-8.29,2.81-20.35,7.1-27.01.29,3.34-2.57,5.38-1.79,8.62l-5.32,18.38Z"/>
      <path class="st13" d="M1620.77,682.98l-23.4,7.98c-1.37-.73,21.15-10.1,21.22-10.09.68.02,1.09.64,2.19,2.11Z"/>
      <path class="st13" d="M1885.35,1037.82c.71-.07,1.13.57,1.72.92v1.81s-6.18-1.36-6.18-1.36c-3.64-.8-7.57-2.18-9.52-5.38-.04-.56,1.05-1.51.73-1.95-.39-.54-1.45-.86-.82-1.88,2.01,1.15,12.8,11.42,14.07,7.83Z"/>
      <path class="st13" d="M879.64,779.41c.85.77,1.16,2.37,1.64,3.51-1.27.62-2.11.15-2.78.38l-11.58-15.39,12.72,11.5Z"/>
      <path class="st20" d="M1823.25,925.34c1.65.94-1.2,24.34-3,27.1-.39-9.04,1.81-17.63,3-27.1Z"/>
      <path class="st13" d="M786.28,1035.1l2.97-4.13c.18.99-.51,2.37.51,3.03,2.93-.98,3.8-4.02,6.76-3.21-3.83,3.29-7.11,5.8-10.8,8.2l-8.97,5.84c.52-4.86,15.25-7.82,9.54-9.73Z"/>
      <path class="st13" d="M916.14,1189.42c-7.79,3.41-14.68,9.61-23.34,11.41,7.57-5.15,15.44-8.03,22.45-12.29l.89.87Z"/>
      <path class="st13" d="M1479.13,1051.96c-7.84-.39-15.02-2.22-22.4-5.22,7.69.42,14.89,3.06,22.4,5.22Z"/>
      <path class="st13" d="M1421.26,789.65c.49-.54.13-1.12-.47-.59,6.21-5.28,9.57-12.72,16.9-16.61l-16.42,17.2Z"/>
      <path class="st13" d="M758.48,813.04c-.42,1.62-16.58,7.69-19.53,7.68,2.09-3.8,15.28-5.33,17.34-8.77.79.31,1.46.69,2.19,1.09Z"/>
      <path class="st13" d="M1189.59,1050.29c.18,5.28-3.05,10.31-4.26,15.5-.26-6.72,1.55-12.58,2.49-18.46.38,1.4-.64,2.79.63,5.05.57-.75.24-1.79,1.15-2.1Z"/>
      <path class="st13" d="M1202.13,705.54c-.54-2.85-4.02,2.96-6.7.91.85-2.14,5.86-2.48,1.93-2.48,2.13-3.11,6.86-2.01,10.03-4.14-1.48,2.92-3.54,4.03-5.26,5.71Z"/>
      <path class="st13" d="M726.69,1123.03c-5.48,2.9-10.16,7.25-16.42,9.96,4.07-4.94,10.02-6.74,14.65-10.38.56.24,1.16.36,1.77.42Z"/>
      <path class="st13" d="M975.55,1043.57c.14-1.01.19-2.51-.96-2.88.94-5.19,1.72-10.34,3.6-15.53.45,6.68-.97,12.75-2.64,18.41Z"/>
      <path class="st13" d="M767.83,1119.57c-.19-.72-.78-.93-1.22-.89-.72.07-1.53.8-2.81.44,1.74-3.11,5.45-3.54,8.2-5.23.54.44,1.45.71,1.81,1.43-2,2.3-4.1,3-5.98,4.25Z"/>
      <path class="st13" d="M1878.7,728.45l-1.09,12.58c-.71.34-.76,1.6-1.7,1.9l.59-13.38c.69-.14,1.44-.87,2.2-1.1Z"/>
      <path class="st13" d="M769.28,1049.88c2.81-.83-12.26,10.29-12.05,7.92,3.35-3.54,7.38-5.36,12.05-7.92Z"/>
      <path class="st13" d="M744.13,1135.83c-4.4,2.13-8.11,5.94-13.7,6.74,4.17-3.15,8.38-5.49,12.63-7.82.31.41.67.77,1.07,1.08Z"/>
      <path class="st13" d="M1846.9,709.94l-7.95,6.03c1.09-3.55,3.76-5.3,5.13-7.66.58,1.03,1.75,1.33,2.82,1.63Z"/>
      <path class="st13" d="M886.06,720.71c-.47-.2-1.27-.62-1.75-.54,2.88-2.86,6.54-5.01,10.5-7.23-2.5,3.52-6.14,5.01-8.75,7.77Z"/>
      <path class="st13" d="M1733.72,724.99c-3.78,1.16-7.49.62-11.84.28,3.31-1.81,7.41-3.03,11.84-.28Z"/>
      <path class="st13" d="M732.6,1188.23c-3.82,2.08-6.37,6.08-10.82,7.07,3.01-3.39,6.97-5.02,10.05-7.8l.77.73Z"/>
      <path class="st17" d="M1818.66,960.85c.5,3.37,1.15,13.43-2.05,11.63-.12-.07,1.15-10.96,2.05-11.63Z"/>
      <path class="st13" d="M1318.65,1034.37l-.74.74c-2.24-3.17-5.79-5.84-6.9-9.74,3.04,3.26,5.3,6.2,7.64,9Z"/>
      <path class="st13" d="M769.3,1082.08c-3.28,2.2-6.48,4.75-11.05,5.66,3.13-3.56,7.21-4.83,10.94-6.72.11.23.35.89.11,1.05Z"/>
      <path class="st7" d="M1415.48,777.4l-.1-.81c1.37-1.03,2.22-3.33,3.03-4.7,1.58-.74,2.75-2.37,4.74-3.02-1.76,3.85-5.29,5.77-7.68,8.53Z"/>
      <path class="st11" d="M1744.11,1053.01c.46,0,.81-.34.91-.78,1.87,2.89,5.46,4.79,6.54,8.65l-7.45-7.87Z"/>
      <path class="st0" d="M813.19,1202.08c-.43,2.39-.27,5.16-2.64,6.9-.96-3.63,1.21-6.31,1.68-8.99-.01.81.1,1.78.96,2.09Z"/>
      <path class="st18" d="M1176.35,1004.32c0-.8-.15-1.73-.98-2.06.46-2.36,1.18-4.59,2.64-6.84.4,3.51-.48,6.33-1.66,8.9Z"/>
      <rect class="st24" x="1173.16" y="1030.22" width="5.77" height="1.52" transform="translate(-173.93 1820.65) rotate(-71.57)"/>
      <g>
        <path class="st13" d="M1544.14,707.45c-4.18-23.95,2.26-33.82-24.26-41.36,12.4-3.82,21.45-7.17,27.07-19.49l11.39-24.95c2.22,12.52-1.07,29.73,9.5,38.05,4.32,3.4,9.87,4.05,15.09,6.52-27.31,5.54-28.28,17.94-38.79,41.24Z"/>
        <path class="st23" d="M1546.47,693.03c-2.61-14.95-1.25-20.96-17.13-27.13,16.84-4.65,20.12-15.91,26.21-30,1.93,13.95.71,24.65,16.68,29.99-9.48,2.43-16.91,7.95-20.98,16.78l-4.78,10.37Z"/>
      </g>
      <g>
        <path class="st13" d="M1225.57,763.31c-3.79-18.18-.04-24.88-18.96-30.94,15.15-3.67,18.27-6.71,24.37-20.53l4.64-10.52,1.89,17.04c1.04,9.33,8.15,12.33,16.22,15.13-19.2,4.74-20.52,13.79-28.16,29.81Z"/>
        <path class="st9" d="M1226.77,753.34c-1.79-9.19-.43-15.46-10.8-20.28,12.36-4.9,11.96-9.29,17.61-20.38,1.32,9.99,2.15,18.11,12.3,20.21-6.02,2.89-10.83,5.11-13.64,10.31l-5.47,10.13Z"/>
      </g>
      <g>
        <path class="st13" d="M1929.94,991.93c-19.03,5.17-17.07,9.99-25.21,26-2.75-14.92-.91-22.07-17.57-26.61,19.66-5.56,16.3-10.33,24.8-27.56l2.2,14.49c1.41,9.3,7.82,10.93,15.79,13.68Z"/>
        <path class="st14" d="M1905.97,1009.33c-1.22-8.38-3.2-15.25-11.35-17.51,12.38-6.19,10.07-5.79,15.73-18.36,1.5,2.23.67,4.89,1.5,7.25.98,5.78,4.59,8.87,10.65,11.28-9.43,2.22-13.35,8.32-16.53,17.34Z"/>
      </g>
      <g>
        <path class="st12" d="M1440.2,1017.73c-41.79-41.59-82.56-83.38-122.22-127.84l97.5-112.5c.34-.36.33-.64-.1-.81-4.19,1.5-8.03,3.76-11.55,6.76,1.48-1.69,2.47-3.58,2.94-5.69,2.06-1.85,3.97-4.32,6.23-6.63,14.34-14.63,27.83-29.35,44.64-42.29l-22.94,2.63c-34.4,3.94-67.85,8.81-102,14.13l-34.61,5.39c4.6,2.24,8.97.85,13.36,1.99,11.1,2.88,21.37,7.05,31.75,10.78l-56.95,80.01,16.27-80.67c-22.52,3.71-44.85,8.03-67.35,13.63-3.33.83-5.93,2.77-9.02,3.1,1.89,1.74,5.16.99,6.2,2.79l-20.06,111.62-24.48,153.18c-.77,4.1-.02,9.42,1.78,2.95-.14-4.07,3.51-3.69,5.62-5.97,3.37-7.09,4.48-15.53,6.1-22.84.58-.98.9-.34.96,1.92-.35,8.06-1.98,15.97-1.83,24.03,1.8-1.24.76-3.01,1.28-4.81l58.85-18.48c-.67-2.82-.84-5.42-.49-8.51,2.83-25.11,5.73-49.53,10.56-75.4l60.24,74.6c8.45,10.47,42.23,48.11,46.27,51.96-1.93-5.6-24.65-38.47-24.65-38.47,0,0,8.1,8.22,12.41,12.59,22.67-3.73,44.72-7.22,68.44-8.43l-16.97-8.12,25.48,6.29c4.77,1.18,9.41,1.09,14.02,1.19-6.77-3.73-10.49-8.92-15.69-14.11Z"/>
        <path class="st13" d="M1415.38,776.59c-11.98,8.99-22.6,19.75-34.17,29.66-1.11-1.8.86-1.95,1.7-2.88,8.02-8.91,15.28-17.98,23.86-25.71-.11,4.39,5.23-2.77,11.64-5.77,1.37,1.21-1.52,3.75-3.03,4.7Z"/>
        <path class="st3" d="M1202.27,1023.39c.02-.77-.18-1.62-.96-1.92l2.38-10.72c1.74,4.7-1.25,8.84-1.42,12.64Z"/>
      </g>
      <g>
        <path class="st10" d="M1004.47,1071.51v-4.9c1.07-2.55.71-2.54-1.07.02-1.81,10.13-4.9,20.07-7.89,30.38-.48,1.67-3,2.51-3.76,3.95l-6.23,11.82,3.74-27.9,21.21-134.78-73.38,30.81-14.51,85.6-8.13,50.08,6.26-16.52c.9,4.75-6.6,26.05-3.36,26.98-5.36,4.41-1.15,9.55-4.98,14.66-.75-4.1,1.21-7.36-.05-11.22-24.1,11.93-46.91,26.36-68.51,38.89l-1.74,1.1c-.64,1.05-3.06,1.69-3.44,3.13l-2.95,11.3c-1.11-3.14.31-5.71-.01-8.47-2.08-.39-1.98-1.62-1.79-3.27l3.38-29.6c.59-7.69.58-9.18,0-4.48l-1,.56c-3.45,13.46-6.57,27.06-11.81,40.34-1.78,4.52-9.73,13.75-11.25,22.11-1.13,1.61-1.45.91-.96-2.09l15.04-85.79,15.02-88.18c2.89-3.11,5.99-4.85,8.06-8.53l-41.21,21.82c-2.36-1.75.23-4.79.71-7.75l10.06-61.78,16.32-10.65c-6.42.99-11.46,3.28-16.82,5.35-.12-.87.37-2.49-.45-2.52-3.3-.14-5.42,1.52-8.57,1.59,1.35-1.88,3.1-3.1,5.13-4.26l38.72-22.01,25.21-150.72-23.29,11.72c-1.43,3.74-.95,7.4-1.81,10.78-.32,3.9-.47,7.74-.44,11.51l-2.36,2.94c-1.21,3.3-12.34.8-11.39-3-2.05-2.86,1.3-5.06,4.18-4.84,5.21-10.23,6.32-17.39-5.06-23.62-5.04-5.67,1.48-11.48,4.34-5.75.94.67-.07,1.86-.82,2.67-.28.3,4.24-6.77,5.76-3.96,2.06-2.64,3.4-.89,4.04,5.26-.82,3.84,1.08,3.74,5.69-.3-.86-.33-.81-.65.1-.94,6.94-.95,13.48-3.55,20.11-5.75.25-1.39.63-2.68,1.14-3.89l89-33.88c-1.33,4.68-2.96,8.61-2.53,12.81.53,2.9,1.45,3.17,2.78.81,1.49-9.29,3.69-12.25,10.95-16.82l-11.82,56.48-17.59,93.66,74.31-30.9,20.67-113.17c-1.97-3.34-5.61-2.48-9.35-3.45,33.85-14.29,67.55-27.13,102.76-39.11-2.08,3.12-4.51,5.19-5.65,8.15l-.24,1.37c2.59-.39,5.21-1.15,7.86-2.28,16.31-7.26,33.43-12.38,50.98-18.15-18.01,12.8-36.34,24.49-53.06,39.14l20.02-9.04c-4,5.37-11.39,7.68-14.33,13.51-14.56,28.93-29.42,90.24-35.76,123.28l-26.84,140.07-8.06,51.43,9.16-26.27c-1.18,11.24-4.64,21.74-4.48,32.81.05,3.46-2.25,3.31-2.79,5.62l-4.74,20.55,1-19.93c-24.4,8.49-46.9,18.34-70.32,28.76l2.89-23.36Z"/>
        <g>
          <path class="st16" d="M853.67,779.45c-.71,1.91.27,4.49-.19,6.48-.27,1.17-.36,2.39-.36,3.92,1.81.47,3.51.17,5.17.14.69,2.46-1.27,4.08-3.53,4.64-8.14,2.04-.77-8.92-6.19-9.6-2.37-.87,2.18-8,3.34-8.96,2.34-1.95,2.18,1.29,1.76,3.38Z"/>
          <g>
            <path class="st13" d="M968.88,759.15c-.9,5.6-2.18,11.22-4.23,16.97s-2.43,11.59-5.29,16.84l4-25.72c.86-3.24.85-6.51,2.74-8.9.41,1.07,1.87.59,2.78.81Z"/>
            <path class="st13" d="M1140.79,713.09c-6.67,2.97-12.28,8.3-20.1,10.18,3.62-3.8,7.56-8.23,12.47-9.27,1.82,2.14,3.58-1.34,7.62-.91Z"/>
            <path class="st26" d="M837.25,1143.56c-.08-1.33.46-3.26-1.01-3.93,1.08-4.22,1.45-8.54,3.61-12.66.52,6.18-2,11.31-2.6,16.58Z"/>
            <path class="st21" d="M843.81,1169.37c-.45.26-1.47.66-1.74,1.1-1.4.93,2.14-12.45,2.47-12.71,1.55.91-2.88,12.5-.73,11.61Z"/>
            <path class="st5" d="M1004.47,1071.51c-.24-1.62.58-3.92-1.07-4.88.53-2.95,1.46-5.84,2.47-8.83,1.47,5.15-.88,9.47-1.41,13.71Z"/>
            <path class="st13" d="M1113.08,797.81c2.4-19.21,8.19-36.88,12.83-55.24,1.8-.84,3.34-2.61,6-2.36-7.16,19.26-13.17,38.09-18.83,57.59Z"/>
          </g>
        </g>
      </g>
      <g>
        <path class="st13" d="M725.9,1056.36c-1.63-15.62,5.04-44.64-10.57-51.47-3.98-2.84-8.53-3.91-13.2-5.59l12.86-4.94c10.18-3.25,17.29-10.3,21.78-19.73l15.36-32.24c.16,12.65-.36,24.51,1.23,36.86,1.7,13.18,13.71,15.07,23.45,19.76-8.16,2.43-15.21,4.97-21.79,9.36-14.01,9.36-21.8,33.17-29.14,47.98Z"/>
        <path class="st16" d="M729.88,1039.94l-.73-19.83c-.39-10.64-7.49-17.83-18.69-20.94,24.66-6.75,29.09-20.78,38.05-41.33.95,8.11-.38,15.11,1.25,22.34,1.35,9.51,7.48,16.36,17.66,18.67-23.15,7.03-28.17,20.99-37.55,41.09Z"/>
      </g>
      <g>
        <path class="st13" d="M796.14,684.27l1.94.6,3.6,103.49c.07,1.9-1.23,2.5-2.86,3.01l-90.73-15.88c-1.6-.32-1.68-1.45-.67-2.82l.81-1.9,7.93-.27c23.14,4.6,46.85,5.08,71.19,6.92l-15.14-23.5,17.91,12.8c.87.19,1.36-.08,1.46-.82l-.12-83.39c2.12-4.98,4.58-1.28,4.13,2.97l.54-1.22Z"/>
        <path class="st13" d="M825.74,918.63c1.9,2.73-2.32,4.73-4.06,2.08l-16.56-62.67-16.23,32.55c.37-8.32,2.96-15.31,2.02-26.35l-42.28,33.3c-3.04,1.6-5.33-.72-3.79-3.82l-.6-2.03,62.19-54.64c1.45-1.18,3.08-.33,4.15.93l16.79,79.11-1.64,1.54Z"/>
        <path class="st13" d="M849.6,827.4c1.34-1.29,1.88-.79,1.09.94l-16.32,96.92-35.87,19.81c-1.34,4.51-.26,9.47-2.43,13.41-3.74,6.79,2.27,5.92-9.73,12.23l3.52-31.18c10.9-6.68,22.28-11.32,31.82-18.81,1.33-.54,3.1-.77,4.06-2.08-.29-2.09.51-2.61,2.31-2.67l8.04-56.94,2.07-.87,3.85-31.56c1.45-3.89,7.17-2.57,7.59.81Z"/>
        <path class="st13" d="M905.32,663.08c-2.01,1.65-4.71-.05-3.84-2.66l2.38-9.53,21.8-46.64-42.04,64.7-2.24-.07c-2.65,4.25-5.85,2.2-4.62-1.9l56.79-86.05c10.61-16.07,20.36-31.71,32.6-46.73l-60.83,128.89Z"/>
        <path class="st13" d="M881.37,668.87l1.32,1.55-54.99,93.76c-1.51.8-2.76.2-3.88-1.06l-15.29-70.67,1.63-1.54c.1-2.83,1.2-5.28,4.25-3.8l6.71,26c1.11-.63,1.24-1.94,1.39-2.45.07-.22.39.52.87.73,2.23,9.89,2.99,18.59,6.62,29.15l46.75-73.56c1.19.1,1.12,1.64,2.14,2.61.78.74,1.95-.35,2.48-.71Z"/>
        <path class="st13" d="M670.96,943.69l.84,1.92-40.26,42.42,49.82-42.98,2.14.69c2.42-1.27,5.59-1.91,5.77,1.65l-66.18,55.96c-21.24,17.96-41.34,36.07-63.85,52.82l106.25-112.36,4.44-3.87c2.22.88,2.44,1.91,1.04,3.74Z"/>
        <path class="st13" d="M716.16,770.49c-3.08.41-5.55,2.3-8.74,2.18l-1.95,1.82c-21.91-3.91-44.17-7.99-65.95-13.03-4.76-1.1-10.48-2.55-15.1-4.04-.24-.08-.38-.48-.49-.97-2.13-.43-4.93-.93-2.94.57l2.67.14c28.11,8.41,55.94,17.7,83.5,27.89l.47,2.2c3.63,1.63,4.39,5.33.07,5.54l-148.36-53.06c2.11-1.88,3.8.39,5.56.74l34.6,6.85,116.66,23.17Z"/>
        <path class="st13" d="M814.41,687.1c-1.62,1.05-2.51,2.91-4.25,3.8l-2.07-.46-12.06-55.33,1.97,47.93-1.87,1.22c.08,2.01-.2,4.21-.62,6.79-1.67-2.5.29-5.54-.82-8.31-.47-1.18-2.72-.73-2.71.62l.07,84.33c-1.01.5-2.23.09-1.94-.98.43.44,1.01-.18,1.01-.9l-.22-78.72-2.36-114.5,25.87,114.5Z"/>
        <path class="st13" d="M1009.94,666.06c1.59-.66,1.8-.65.93.9-34.64,22.17-69.11,44.85-102.44,68.85-5.29,3.81-11.51,4.99-17.22,7.59.27-.87.58-1.73,1.01-2.52s.84-1.51,1.45-2c18.39-14.78,41.12-29.68,61.52-40.09.39-.8.06-1.07-.9-.88-15.51,10.2-33.06,18.16-50.38,25.31-.77.32-1.65.39-2.55.44s-1.87-.02-2.81-.13c-2.55.94-3.5-.24-2.6-2.68l113.99-54.78Z"/>
        <path class="st13" d="M736.35,840.9c-2.85.56-3.47-.33-1.9-2.78l30.18-21.91c-2.38-2.36-4.2-2.09-6.14-3.16-1.53.79-2.75.85-2.19-1.09l-48.59-19.16c1.29-1.62,1.32-3.98-.07-5.54l1.47-1.52,71.41,24.77c1.88,2.49,2.11,3.91-1.3,5.75-12.58,8.92-25.66,16.91-39.23,23.98l-3.64.67Z"/>
        <path class="st13" d="M905.32,663.08l-23.67,56.79c-.44,1.06,2.72.9,2.66.31,1.65-1.09,2.23-.91,1.75.54-1.99,2.1-4.81,2.89-6.6,6.4l16.48-6.28c1.14.59,1.75,1.76,2.6,2.68l-2.14,3.14c-5.2,3-24.95,13.96-29.15,14.33-2.5.22-3.17-.43-3.67-2.78,11.5-26.02,23.35-51.8,35.55-77.33l2.34-.44c1.19,1.04,2.88,1.33,3.84,2.66Z"/>
        <path class="st13" d="M726.75,884.23c-1.98,2.22-5.7-.31-3.96-2.89l26.37-29.59c-8.69,2.29-15.97,3.99-23.41,6.47-2.31.28-3.61-.36-3.92-1.92.72-.82,1.46-1.6,2.29-2.28,4.78-3.91,29.78-12,37.04-13.43,8.37-1.64,9.32-1.79,4.3,5.65-10.8,12.06-22,23.79-33.45,35.22-.66.66-1.52,1.13-2.41,1.6s-1.88.84-2.87,1.17Z"/>
        <path class="st13" d="M748.64,897.54l-59.38,49.85-5.77-1.65-.57-2.04c19.93-16.9,39.87-33.8,59.81-50.7l2.12.72c.91,1.58,2.12,3.03,3.79,3.82Z"/>
        <path class="st13" d="M726.75,884.23l.95,1.8c-18.18,19.37-36.35,38.74-54.54,58.12l-2.2-.46c-.6-.49-1.03-2.59-1.99-2.09-1.44.76-2.08,2.8-3.49,2.21,18.5-21.33,38.57-41.44,57.31-62.47,1.09,1.25,2.55,2.04,3.96,2.89Z"/>
        <path class="st13" d="M736.35,840.9l-1.32,3.08-16.21,11.32c1.23-.62,2.09-.11,3.03,1,1.53.1,2.92.75,3.92,1.92-13.15,4.38-26.02,9.19-40.73,12.86l49.41-32.96c.41,1.06,1.13,1.96,1.9,2.78Z"/>
        <path class="st13" d="M850.69,828.34l-1.09-.94c-1.33-1.84-.32-3.74,1.97-3.86.61-4.87,1.6-9.74,2.8-14.46l.19,7.66c5.92,1.88,11.12,3.84,16.61,6.82l-17.27-2.12c5,3.35,6.62,7.33,5.83,13.19-3.1-2.02-6.45-4.07-9.04-6.29Z"/>
        <path class="st13" d="M859.15,813.49c-1.57,8.25-6.64-8.01,2.82-14.79l-2.82,14.79Z"/>
        <path class="st13" d="M858.38,784.15c-.27,1.6.03,3.28,0,4.89,0,.3-.17.66-.1.94-3.75,5.27-9.37-.36-4.81-4.06,1.49-.96,3.08-1.85,4.9-1.78Z"/>
        <path class="st16" d="M901.48,660.42l-13.67,28.73-22.83,50.64c12.24-4.48,22.59-11.24,33.56-16.28,12.15-5.57,24.75-10.49,37.02-16.96,6.35-3.35,12.49-6.1,18.72-8.66,1.56-.74,1.79-.61.9.88l-34.83,23.43c-10.23,6.88-20.09,13.49-29.15,21.18-11.15,5.07-22.45,9.64-34.49,14l-1.26,12.34c-2.47,4.85-5.22,9.65-8.25,14.42-1.02,1.45-2.2,2.17-3.56,2.17-.9-.44-1.89-.41-3.04-.34s-1.53,1.37-1.36,2.37c.88,5.17,14.06,5.88,10.28,19-4.95,17.18-4.72,5.58-9.35,13.18l.76,2c-.56,11.74-1.48,23.62-2.77,35.62l-8.33,58.18c-.3,2.07-3.42,1.38-4.09,2.3l-17.17-80.9-63.73,55.99-61.36,52.02-61.72,53.28-22.63,19.64,30.22-31.13,30.98-32.49,10.63-11.35,55.79-59.46c13.53-14.42,28.02-27.98,41.03-43.68-16.23,5-31.31,9.9-45.94,15.75-5.38,2.15-11.67,2.29-16.98,6.2-.19-2.34,1.68-2.38,2.89-2.97,10.54-5.08,19.09-12.98,28.59-18.63,14.87-8.85,30.02-17.95,44.62-28.21l-73.34-25.44-86.64-30.23c-.45-1.21.53-1.4,2.94-.57,1.44.59,2.78.41,4.8.82l69.18,14.23c3.5.72,6.49,1.05,9.51,1.17-.14,1.29,1.67.86,2.97,1.09l89.41,15.83-3.66-105.32-2.48-60.28c-.1-2.43-1.28-4.44-.46-7.03,2.18.81,1.49,2.75,1.93,4.77l15.04,69.16,15.73,72.69,55.48-94.71,42.67-65.66c5.13-7.9,9.38-15.69,15.08-22.4-13.48,27.25-25.23,53.5-37.65,79.61Z"/>
        <path class="st13" d="M840.17,820.53c3.39,2.03,7.43,3.47,11.39,3-.18,1.44-.65,3.2-1.97,3.86l-5.52-2.2c-1.03,11.38-4.37,22.15-5.91,32.95l.34-34.59c.02-2.33,1.03-1.98,1.67-3.03Z"/>
        <path class="st13" d="M853.67,779.45l-.41-3.11c-1.78,3.05-3.87,5.54-4.69,8.69l-5.76,3.96c-.02-.99.33-2.03.82-2.67,4.72-6.11,7.38-12.71,11.81-16.59-.34,3.34-.6,6.57-1.77,9.72Z"/>
        <path class="st15" d="M623.92,756.45c-.91.08-2.56-.57-2.94.57-4.16-1.45-8.82-1.35-12.67-4.44,5.67,1.16,10.94,1.95,15.61,3.87Z"/>
        <path class="st22" d="M955.18,698.78l-.9-.88c3.53-1.44,6-5.8,10.92-5.81-3.04,3.06-6.81,4.53-10.02,6.69Z"/>
      </g>
      <g>
        <g>
          <path class="st12" d="M1798.08,1018.83c1.56.42,3.14.73,4.74.87,21.34,4.55,38.52,12.04,60.74,16.3l-44.78-36.41-68.59-58.2c-20.56-17.44-39.74-35.15-59.42-54.45,28.49-15.97,48.25-34.43,61.4-63.88,4.58-10.75,7.07-21.37,7.46-33.12.9-26.5-15.72-49.7-41.34-56.73-26.4-7.24-57.57-2.85-84.34,3.43-29.11,6.83-57.24,14.79-85.2,24.95,6.25.09,10.89-1.61,16.54.74,3.57,1.23,8.53-2.4,12.55-2.03,2.34-.5,3.34-.32,3.02.58-5.84,2.34-11.03,4.26-16.53,6.97l-3.23,50.69c12.57-4.9,24.08-9.93,37.05-13.03l-13.74,9.72-10.81,161.82c-.67,10.14-1.03,19.06-.38,29.06,1.74-.49,2.12-2.19,1.55-3.71-1.13-2.99,2.09-3.74,2.63-5.3,1.74-5.08.89-10.26,1.96-15.08,1.21,5.25,0,10.1.43,15.6,16.34-.07,32.16-.86,48.3.51,2.2.18,3.97,1.18,6.17-.48-1.51-.62-2.66-1.84-2.57-4.04l3.17-76.41,95.13,121.08c4.52,5.75,9.56,9.91,14.12,14.74,1.52,1.23,1.83.91.91-.78-3.7-5.71-8-9.94-12.38-15.53l3.38-1.4c-.71-1.97-2.45-2.96-2.35-5.31,2.45,1.31,3.11,3.56,5.12,5.61,30.23-3.14,60.11-3.6,91.01-1.9-9.94-4.96-20.53-7.73-29.84-13.31.16-.46-.72-1.04-1.87-1.57ZM1683.09,831.39c-13.54,11.04-28.42,18.75-45.07,25.37l6.36-59.24c10.65-2.85,21.25-5.1,32.45-5.7,6.56-.05,13.02.87,17.74,5.36,3.66,4.22,3.63,9.93,2.07,15.21-2.33,7.6-7.46,13.18-13.56,18.99Z"/>
          <path class="st19" d="M1580.85,760.88c-.54-1-2.08-.3-3.02-.57l10.77-2.72c-2.58,2.19-5.36,2.33-7.75,3.29Z"/>
          <path class="st1" d="M1802.81,1019.71c-1-.03-2.11-.06-2.86.69-2.46-1.47-5.47-1.46-7.88-3.7,3.98.79,7.61,1.44,10.74,3.01Z"/>
        </g>
        <g>
          <path class="st12" d="M1563.38,895.24c3.34-3.39,6.01-6.97,5.73-11.86l-21.49,3.65-17.2-123.56c-.42-3.04.1-5.44-1.64-8.12-.92,3.42-3.07,5.73-6.81,6.59-1.11,1.09-2.02,1.6-3.57,1.18l-62.88,16.75c-.07.76,3.13,1.61,2.68,2.62l-57.98,130.55-33.73,9.08c7.71,1.69,13.33,2.33,21.33,3.67-4.41,3.17-9.21,4.06-11.42,9.22l54.58,56.52,10.69-32.72,52.33-13.95,7.08,58.86c1.9-.61,3.29-1.91,5.56-1.8,1.45-.71.98-2.05,1.49-3.53.98.35,1.11,2.65,2.46,2.48,17.95-2.32,35.46-4.5,53.99-5.49l-10.18-64.46,11.25-3.31c1.14-3.26.45-6.6-2.32-8.88l2.93-3.31c.27-7.01.68-13.56,2.12-20.46-1.93-.2-3,1.22-4.99.28ZM1460.45,901.31l22.16-55.14,6.11,49.03-28.27,6.11Z"/>
          <path class="st13" d="M1521.96,761.94l7.63,55.1-11.2-53.91c1.42-.38,2.3-1.91,3.57-1.19Z"/>
        </g>
      </g>
    </g>
  </g>
</svg>