<?xml version="1.0" encoding="UTF-8"?>
<svg id="Layer_1" xmlns="http://www.w3.org/2000/svg" version="1.1" viewBox="970 648 780 780">
  <!-- Generator: Adobe Illustrator 30.1.0, SVG Export Plug-In . SVG Version: 2.1.1 Build 136)  -->
  <defs>
    <style>
      .st0 {
        fill: #7a7b89;
      }

      .st1 {
        fill: #010825;
      }

      .st2 {
        fill: #fcfbe4;
      }

      .st3 {
        fill: #777680;
      }

      .st4 {
        fill: #f1f1f2;
      }

      .st5 {
        fill: #fbf9f9;
      }

      .st6 {
        fill: #fbf0c4;
      }

      .st7 {
        fill: #fde5a5;
      }

      .st8 {
        fill: #fdfdfc;
      }

      .st9 {
        fill: #8a8990;
      }

      .st10 {
        fill: #fde78c;
      }

      .st11 {
        fill: #f7f7f7;
      }

      .st12 {
        fill: #4c4e5b;
      }
    </style>
  </defs>
  <g>
    <g>
      <path class="st6" d="M1217.85,562.65l-4.47,9.04c-1.31-3.56.82-8.03-.99-11.29-2.07-3.73-.08-4.99.77-8.47l6.2-25.36c.87,8.69-2.03,16.87.68,24.99,1.31,3.92,5.37,1.81,8.97.44-1.52,2.61-3.15,6.58-5.66,7.87-2.04.65-4.05-.15-5.51,2.79Z"/>
      <path class="st6" d="M1049.37,638.12c-.34-1.1,0-1.33,1.02-.72l30.33,19.96c-1.49,1.59-2.8,2.73-4.6,3.57l-26.75-22.8Z"/>
      <path class="st6" d="M1050.39,637.4l-1.02.72c-5.85-4.86-12.3-9.19-17.53-14.54l12.47,8.57c2.29,1.57,4.24,4.03,6.09,5.24Z"/>
      <path class="st6" d="M1300.54,612.61c-.05-.97.32-1.77.06-2.47-.49-1.3-2.25-.7-3.02-2.29,2.93.4,5.25.57,7.04-2.25.4,3.43-1.55,5.14-4.08,7Z"/>
      <path class="st6" d="M1177.08,660.47c-2.35-3.44-2.09-7.64.88-9.69.27,3.23,1.54,5.88-.88,9.69Z"/>
      <path class="st6" d="M1407.42,594.47l-1.21-1.17c3.23-1.55,5.77-4.77,10.48-5.04-2.38,3.62-6.3,4.31-9.27,6.21Z"/>
      <g>
        <path class="st6" d="M992.95,810.65c2.09-2.11,2.94-5.23,2.02-8.46-.77-2.68-4.86-5.03-8.59-4.67l-35.14,3.45,33.99-8.52c3.5-.88,7.29-5.05,7.11-8.54-.21-4.04-4.2-5.51-6.98-7.71,2.46-.75,4.45-1.52,6.57-3.59,1.05.92,3.74,2.29,3.65,3.85-.14,2.37-1.96,4.34-1.53,6.67,1.3,7.14,9.81,6.54,16.38,7.45-4.41,2-8.72,3.66-11.83,7.84-6.17,8.31,4.81,8.84.05,14.35-1.47,1.7-2.51-.08-5.68-2.12Z"/>
        <circle class="st2" cx="994.67" cy="792.98" r="2.13"/>
      </g>
      <g>
        <path class="st6" d="M1118.26,1069.45c.17,4.83-1.12,6.63-3.87,5.39l-18.67,11.23c-1.51.91-1.68,3.38-3.08,4.37-16.1,11.29-30.94,18.72-39.11,36.34l56.42-24.98c8.19-3.63,15.99-6.2,23.46-10.59-3.47,5.93-7.9,8.66-11.87,13.34-.76-1.32-1.19-3.43-2.57-3.1-6.43,1.54-5.4,16.19-6.93,25.05l40.93-21.81-3.84,16.22-26.26,143.58-9.9,51.92c2.97-.74.84-4.69,4.45-4.82-4.28,14.89-8.36,28.86-11.06,44.25,31.91-21.31,61.2-42.02,93.74-60.19l102.41-57.17,17.35-103.93c3.66-21.89,6.23-42.72,12.83-65.02.4,21.85-3.09,41.49-4.11,62.86-1.89,39.81-6.1,78.22-12.34,117.63-82.07,41.15-155.86,86.61-233.87,138.27l31.89-146.91c3.63,3.39-1.79,6.36,1.31,10.15-1.85-5.61,3.86-8.82,4.84-12.27,6.17-21.74,9.12-43.44,14.1-65.51l14.19-62.92c-10.16,5.26-13.48,13-19.22,16.52l-34.01,20.88c-1.95,1.2-1.47,5.81-1.02,7.29l36.72-16.71c1.58,3.73-1.33,6.3-4.9,7.99l-21.19,10.03c-23.22,10.99-46.21,21.01-68.43,32.76-1.22.6-1.99.42-2.3-.55l52.74-41.46c3.97-3.12,7.65-6.44,5.16-11.42-1.92.63-1.97.17-.15-1.37,3.58-1.82,5.87-18.88,7.16-25.77-10.33,5.79-45.19,22.32-53.69,24.23-2.32.52-4.65,1.04-8,2.66l-112.47,54.41c7.37-6.67,15.51-11.12,23.93-16.53l81.5-52.42.33,13.61c3.18-5.2,3.57-10.86,5.5-16.91l67.44-38.95,6.52-45.05c2.3-2.17,5.37-2.76,7.07-5.86-1.59-1.24-5.78-1.23-5.57-3.58l2.93-31.86c3.75-1.22,6.11-2.65,9.74-3.25l-2.23,11.14c2.56.06,3.84-2.02,6.13-1.53l-10.11,70.34Z"/>
        <path class="st6" d="M1208.47,747.4c-.3,3.31-3.84,4.22-6.39,2.32-3.81-.98-3.31-7.48.24-8.45.66-2.26.24-3.81-1.28-4.67l3.59-8.02c-4.35,0-.71-17.23.12-17.71l38.23-15.7s2.77-.32,8.3-.96l19.15-10.71,3.32.8c44.08-16.23,87.86-32.75,134.13-46.13l-6.62,33.7c1.99.17,3.13-.99,4.53-.58l-8.13,46.36c2.33.16,6.14-1.02,6.58-3.84l7.64-49.19,55.77-21.87c52.01-20.4,104.31-36.71,159.43-51.06l-12.53,13.42c44.81-10.91,87.75-21.75,133.15-29.56-32.08,18.79-66.64,33.4-102.02,45.26l25.54-15.16c-24.64,2.74-50,12.61-74.24,20.54l8.72-15.79c-62.25,18.04-121.99,39.03-181.24,63.04-1.49,5.52-.16,11.13-2.61,15.55-1.9,2.23-8.44,1.63-9.59,4.95-1.31,3.76-.33,8.04-.84,11.97,3.08.59,4.72-1.02,8.28-1.44l-2.58,19.53-30.25,12.4,6.77-32.92c-2.93,3.24-4.12,6.9-7.98,7.44l6.44-34.74c-4.41.79-6.86,3.45-10.97,3.64,1.83-7.63,6.09-12.92,8.92-20.9-6.8,1.55-13.55,3.86-20.15,6.8-4.6,2.05-7.34,6.24-12.25,8,.98-3.92,5.61-3.31,6.12-7.26-15.64,3.75-28.93,10.5-43.45,17.32-.69-2.99,4.49-1.15,2.99-4.79-37.78,12.89-73.79,27.61-110.36,42.39l-4.46,26.01Z"/>
        <path class="st6" d="M1059.39,1206.25c-1.3.35-1.76-.12-1.4-1.41l17.15-9.4c5.61-3.07,10.23-7.12,15.18-10.39-.49-2.14,1.24-3.92,5.18-5.35l.26-2.06c10.53-6.42,20.59-13.24,32.46-19.51l-7.75,43.19c-54.68,25.94-107.06,54.28-160.43,84.23,15.3-13.74,32.01-23.91,48.14-36.33l58.33-44.9c-2.76-.02-5.13.96-7.13,1.93Z"/>
        <path class="st6" d="M1044.35,1274.63c-1.04.52-1.37.19-1.01-.96l56.22-45.82-35.59,17.15,55.47-40.02-5.27,33.35c-24.41,11.36-47.01,23.86-69.82,36.3Z"/>
        <path class="st11" d="M1056.16,718.62c-.85-6.12-1.35-13.55-5.78-18.71-3.89-4.53-10.12-3.93-15.78-6.41,4.05-2.11,16.03-2.57,18.51-10.02l5.5-16.49c1.15,6.09,1.01,12.38,4.11,18.12,3.26,6.03,9.88,7.03,16.92,8.93-19.06,4.73-16.63,6.19-23.47,24.58Z"/>
        <path class="st11" d="M1187.23,615.56c-5.05-17.99-1.07-19.2-19.22-25.58,19.67-3.19,16.34-11.76,21.16-27.09,2.28,7.17.84,14.16,4.48,20.18,3.17,5.26,9.65,5.38,14.95,7.04-18.87,5.64-15.84,9.41-21.37,25.45Z"/>
        <path class="st4" d="M1116.52,923.97c-3.91-7.83,2.55-12.86-12.24-18.04,11.64-1.38,11.33-4.01,14.45-13.29,1.9,7.9-.41,10.61,11.34,13.84-7.76,2.37-11.35,8.09-13.55,17.49Z"/>
        <path class="st6" d="M1040.67,954.12c-8.8,10.03-15.65,20.3-25.51,29.03,1.18-3.58,24.53-32.62,24.7-32.56.69.22,1.53.3,1.68.74.21.59.09,1.9-.87,2.78Z"/>
        <path class="st6" d="M1115.59,684.86c-7.59-4.29-14.73-8.29-21.56-13.46-1.86-1.41-1.53-5.92-4.82-6.22,1.81.66,4.73-.09,5.92.79,7.53,5.6,13.43,12.34,20.46,18.88Z"/>
        <path class="st6" d="M1594.63,615.87c-11.49,8.95-24.9,14.59-39.17,18.78l39.17-18.78Z"/>
        <path class="st6" d="M1236.2,741.2c1.11,1,1.51,3.09,2.14,4.58-1.66.81-2.75.2-3.63.49l-15.12-20.08,16.6,15Z"/>
        <path class="st6" d="M1114.39,1074.83l3.87-5.39c.24,1.29-.66,3.09.66,3.95,3.83-1.28,4.95-5.24,8.82-4.19-5,4.3-9.27,7.56-14.09,10.7l-11.71,7.62c.68-6.34,19.9-10.21,12.44-12.69Z"/>
        <path class="st6" d="M1283.82,1276.18c-10.16,4.45-19.16,12.54-30.45,14.89,9.88-6.72,20.15-10.48,29.29-16.03l1.16,1.14Z"/>
        <path class="st6" d="M1078.11,785.09c-.54,2.11-21.63,10.04-25.48,10.02,2.73-4.95,19.94-6.96,22.63-11.44,1.03.41,1.9.9,2.85,1.42Z"/>
        <path class="st6" d="M1036.64,1189.56c-7.15,3.78-13.25,9.46-21.42,12.99,5.31-6.45,13.07-8.79,19.12-13.54.73.32,1.51.47,2.3.55Z"/>
        <path class="st6" d="M1090.31,1185.05c-.25-.95-1.01-1.21-1.6-1.16-.94.09-1.99,1.04-3.67.57,2.27-4.06,7.11-4.62,10.7-6.82.71.57,1.89.92,2.36,1.87-2.61,3.01-5.35,3.92-7.8,5.54Z"/>
        <path class="st6" d="M1092.2,1094.11c3.66-1.08-15.99,13.43-15.72,10.33,4.37-4.62,9.64-6.99,15.72-10.33Z"/>
        <path class="st6" d="M1059.39,1206.25c-5.74,2.78-10.58,7.76-17.88,8.79,5.44-4.1,10.93-7.17,16.47-10.2.4.53.88,1,1.4,1.41Z"/>
        <path class="st6" d="M1244.58,664.62c-.61-.26-1.66-.81-2.29-.7,3.76-3.73,8.53-6.54,13.7-9.43-3.26,4.6-8.01,6.53-11.41,10.14Z"/>
        <path class="st6" d="M1044.35,1274.63c-4.99,2.72-8.31,7.94-14.12,9.22,3.92-4.42,9.09-6.55,13.12-10.18l1.01.96Z"/>
        <path class="st6" d="M1092.24,1136.13c-4.27,2.87-8.46,6.2-14.42,7.39,4.09-4.65,9.4-6.3,14.27-8.76.14.29.46,1.16.15,1.37Z"/>
        <path class="st0" d="M1149.5,1292.71c-.57,3.12-.35,6.74-3.44,9-1.25-4.73,1.58-8.23,2.19-11.73-.02,1.05.13,2.32,1.25,2.73Z"/>
        <g>
          <path class="st5" d="M1399.08,1122.33v-6.4c1.39-3.33.93-3.32-1.39.02-2.37,13.22-6.39,26.18-10.3,39.65-.63,2.18-3.91,3.27-4.91,5.16l-8.13,15.42,4.89-36.41,27.68-175.86-95.75,40.2-18.93,111.69-10.61,65.34,8.16-21.56c1.18,6.19-8.61,33.99-4.38,35.21-6.99,5.75-1.5,12.46-6.49,19.13-.98-5.35,1.58-9.6-.07-14.64-31.45,15.57-61.21,34.39-89.39,50.74l-2.27,1.43c-.84,1.37-3.99,2.2-4.49,4.09l-3.85,14.74c-1.45-4.1.41-7.45-.01-11.06-2.71-.5-2.58-2.12-2.34-4.26l4.41-38.62c.76-10.03.76-11.98,0-5.85l-1.31.73c-4.5,17.56-8.57,35.3-15.41,52.63-2.32,5.89-12.7,17.94-14.68,28.85-1.48,2.09-1.89,1.19-1.25-2.73l19.62-111.93,19.59-115.06c3.77-4.06,7.82-6.33,10.52-11.12l-53.77,28.47c-3.08-2.28.3-6.25.93-10.11l13.13-80.6,21.29-13.9c-8.37,1.29-14.96,4.28-21.94,6.98-.16-1.14.48-3.24-.59-3.29-4.3-.19-7.07,1.99-11.18,2.08,1.76-2.45,4.04-4.05,6.7-5.56l50.53-28.72,32.9-196.65-30.39,15.29c-1.87,4.88-1.24,9.65-2.36,14.07-.42,5.09-5.16,28.34-5.16,28.34l-1.34-3.95s-13.26-4.48-12.02-9.44c-2.67-3.73,1.69-6.6,5.45-6.31,6.8-13.35,8.24-22.69-6.6-30.82-6.57-7.4,1.93-14.97,5.66-7.5,1.22.87-.1,2.43-1.07,3.49-.36.39,5.53-8.83,7.52-5.16,2.68-3.45,4.44-1.16,5.27,6.86-1.07,5.01,1.4,4.88,7.42-.4-1.12-.43-1.06-.84.13-1.23,9.05-1.24,17.58-4.63,26.23-7.51.32-1.81.82-3.5,1.49-5.07l116.13-44.21c-1.73,6.1-3.86,11.23-3.3,16.72.69,3.78,1.9,4.13,3.62,1.06,1.94-12.12,4.81-15.98,14.28-21.94l-15.42,73.69-22.95,122.2,96.96-40.31,26.97-147.66c-2.58-4.36-7.32-3.23-12.2-4.51,44.16-18.65,88.14-35.4,134.09-51.03-2.72,4.07-5.88,6.78-7.37,10.63l-.31,1.79c3.38-.51,6.79-1.5,10.26-2.97,21.28-9.47,43.61-16.16,66.52-23.68-23.51,16.7-47.41,31.95-69.24,51.07l26.13-11.79c-5.22,7.01-14.87,10.02-18.69,17.62-19,37.74-38.39,117.74-46.65,160.86l-35.01,182.76-10.52,67.11,11.95-34.28c-1.53,14.66-6.06,28.36-5.84,42.81.07,4.51-2.94,4.32-3.64,7.33l-6.19,26.81,1.3-26c-31.84,11.07-61.19,23.92-91.75,37.52l3.77-30.49Z"/>
          <g>
            <path class="st8" d="M1202.32,741.26c-.92,2.49.35,5.86-.24,8.45-.35,1.53-.47,3.11-.46,5.11,2.37.61,4.58.22,6.74.18.9,3.21-1.65,5.32-4.61,6.06-10.63,2.66-1-11.63-8.08-12.52-3.1-1.13,2.85-10.44,4.35-11.69,3.05-2.54,2.84,1.68,2.3,4.41Z"/>
            <g>
              <path class="st6" d="M1352.65,714.77c-1.17,7.31-2.85,14.64-5.52,22.14-2.67,7.5-3.16,15.12-6.9,21.98l5.23-33.56c1.12-4.23,1.11-8.49,3.57-11.61.53,1.4,2.44.77,3.62,1.06Z"/>
              <path class="st6" d="M1576.94,654.67c-8.7,3.87-16.03,10.83-26.22,13.28,4.73-4.96,9.86-10.74,16.27-12.1,2.37,2.79,4.67-1.75,9.95-1.18Z"/>
              <path class="st12" d="M1180.89,1216.35c-.11-1.73.6-4.26-1.31-5.12,1.41-5.51,1.9-11.14,4.71-16.51.68,8.06-2.61,14.76-3.39,21.64Z"/>
              <path class="st9" d="M1189.45,1250.03c-.58.34-1.92.86-2.27,1.43-1.82,1.21,2.8-16.25,3.22-16.58,2.03,1.18-3.76,16.31-.95,15.15Z"/>
              <path class="st3" d="M1399.08,1122.33c-.31-2.11.76-5.12-1.39-6.37.69-3.85,1.91-7.62,3.23-11.52,1.92,6.73-1.15,12.35-1.84,17.89Z"/>
              <path class="st6" d="M1540.79,765.22c3.13-25.06,10.69-48.13,16.74-72.07,2.34-1.09,4.36-3.41,7.83-3.08-9.34,25.13-17.18,49.7-24.57,75.15Z"/>
            </g>
          </g>
        </g>
        <g>
          <path class="st6" d="M1035.61,1102.57c-2.13-20.38,6.57-58.25-13.79-67.15-5.2-3.71-11.13-5.1-17.22-7.3l16.78-6.44c13.28-4.23,22.56-13.45,28.42-25.74l20.05-42.06c.2,16.5-.47,31.98,1.61,48.09,2.22,17.19,17.89,19.66,30.6,25.78-10.64,3.17-19.85,6.48-28.43,12.22-18.28,12.21-28.45,43.28-38.02,62.6Z"/>
          <path class="st8" d="M1040.8,1081.14l-.95-25.88c-.51-13.88-9.77-23.27-24.39-27.32,32.17-8.8,37.95-27.11,49.65-53.93,1.24,10.58-.5,19.72,1.63,29.15,1.77,12.41,9.75,21.35,23.04,24.36-30.21,9.17-36.75,27.38-48.99,53.61Z"/>
        </g>
        <g>
          <path class="st6" d="M1127.25,617.06l2.54.78,4.69,135.04c.09,2.48-1.61,3.26-3.74,3.93l-118.39-20.72c-2.09-.41-2.19-1.89-.87-3.68l1.06-2.49,10.34-.35c30.2,6,61.13,6.62,92.89,9.04l-19.75-30.66,23.37,16.71c1.13.25,1.77-.11,1.91-1.07l-.16-108.8c2.77-6.5,5.98-1.67,5.39,3.88l.71-1.59Z"/>
          <path class="st6" d="M1165.88,922.86c2.49,3.56-3.02,6.18-5.29,2.72l-21.61-81.77-21.18,42.47c.48-10.86,3.86-19.97,2.64-34.38l-55.16,43.44c-3.96,2.08-6.96-.94-4.94-4.98l-.78-2.65,81.14-71.29c1.89-1.54,4.02-.43,5.42,1.21l21.9,103.22-2.14,2.01Z"/>
          <path class="st6" d="M1197.01,803.82l1.83.58-21.69,127.09-46.8,25.85c-1.75,5.89-.34,12.36-3.17,17.49-4.88,8.86,2.96,7.73-12.7,15.95l4.6-40.68c14.22-8.71,29.07-14.77,41.52-24.54,1.74-.71,4.05-1,5.29-2.72-.38-2.73.66-3.4,3.02-3.48l10.49-74.29,2.7-1.14c3.35-27.46,5.02-41.18,5.02-41.18,1.89-5.08,9.9,1.06,9.9,1.06Z"/>
          <path class="st6" d="M1269.71,589.42c-2.62,2.15-6.14-.06-5.01-3.46l3.11-12.43,28.44-60.86-54.86,84.41-2.93-.1c-3.45,5.55-7.63,2.87-6.02-2.48l74.1-112.27c13.84-20.97,26.56-41.38,42.53-60.98l-79.37,168.17Z"/>
          <path class="st6" d="M1238.47,596.98l1.72,2.02-71.75,122.33c-1.96,1.04-3.6.26-5.07-1.38l-19.95-92.21,2.13-2.01c.13-3.69,1.56-6.89,5.54-4.95l8.76,33.93c1.45-.82,1.61-2.53,1.81-3.2.09-.29.5.67,1.14.95,2.91,12.9,3.9,24.25,8.64,38.03l61-95.98c1.56.13,1.46,2.14,2.79,3.4,1.02.97,2.55-.46,3.24-.92Z"/>
          <path class="st6" d="M963.91,955.55l1.09,2.5-52.53,55.35,65-56.07,2.79.9c3.16-1.65,7.3-2.49,7.52,2.15l-86.35,73.01c-27.71,23.43-53.93,47.06-83.31,68.92l138.64-146.6,5.8-5.04c2.9,1.15,3.18,2.49,1.35,4.88Z"/>
          <path class="st6" d="M1022.89,729.57c-4.01.53-7.24,3-11.41,2.84l-2.54,2.37c-28.59-5.1-57.64-10.42-86.05-17.01-6.21-1.44-13.67-3.33-19.7-5.27-.32-.1-.5-.62-.64-1.26-2.78-.56-6.43-1.21-3.83.75l3.49.18c36.67,10.97,72.99,23.1,108.95,36.39l.61,2.87c4.74,2.13,5.72,6.95.09,7.23l-193.58-69.24c2.76-2.45,4.96.51,7.26.96l45.15,8.94,152.21,30.24Z"/>
          <path class="st6" d="M1151.09,620.76c-2.12,1.37-3.27,3.79-5.54,4.95l-2.7-.6-15.73-72.19,2.57,62.54-2.44,1.59c.11,2.62-.26,5.49-.8,8.86-2.18-3.26.38-7.23-1.07-10.84-.62-1.54-3.54-.96-3.54.81l.09,110.03c-1.32.65-2.92.12-2.53-1.28.56.58,1.32-.24,1.32-1.17l-.29-102.71-3.09-149.4,33.75,149.4Z"/>
          <path class="st6" d="M1406.21,593.3c2.08-.86,2.35-.85,1.21,1.17-45.2,28.93-90.17,58.52-133.67,89.83-6.9,4.97-15.02,6.51-22.47,9.9.36-1.14.76-2.26,1.32-3.29s1.1-1.98,1.89-2.61c24-19.29,53.66-38.72,80.27-52.31.51-1.05.08-1.39-1.17-1.15-20.24,13.31-43.14,23.7-65.74,33.02-1,.41-2.15.51-3.33.57s-2.44-.03-3.66-.17c-3.32,1.22-4.57-.31-3.39-3.5l148.73-71.47Z"/>
          <path class="st6" d="M1049.23,821.43c-3.72.73-4.53-.43-2.48-3.63l39.38-28.59c-3.1-3.08-5.48-2.72-8.01-4.12-2,1.03-3.59,1.11-2.85-1.42l-63.41-25c1.68-2.12,1.72-5.19-.09-7.23l1.92-1.99,93.18,32.32c2.46,3.25,2.75,5.1-1.69,7.5-16.41,11.64-33.48,22.07-51.18,31.29l-4.74.88Z"/>
          <path class="st6" d="M1269.71,589.42l-30.88,74.1c-.58,1.38,3.55,1.17,3.47.4,2.15-1.42,2.91-1.19,2.29.7-2.59,2.75-6.28,3.78-8.61,8.34l21.51-8.19c1.49.76,2.29,2.29,3.39,3.5l-2.79,4.1c-6.78,3.91-32.56,18.21-38.03,18.69-3.26.29-4.13-.57-4.78-3.63,15-33.95,30.46-67.58,46.39-100.91l3.05-.58c1.55,1.35,3.75,1.74,5.01,3.46Z"/>
          <path class="st6" d="M1036.71,877.97c-2.58,2.9-7.43-.4-5.16-3.77l34.41-38.61c-11.34,2.99-20.84,5.2-30.54,8.44-3.01.37-4.71-.47-5.12-2.5.93-1.07,1.9-2.09,2.98-2.98,6.23-5.1,38.86-15.65,48.34-17.52,10.92-2.15,12.16-2.34,5.62,7.37-14.09,15.73-28.7,31.04-43.64,45.95-.86.86-1.99,1.48-3.15,2.09s-2.45,1.1-3.74,1.53Z"/>
          <path class="st6" d="M1065.28,895.34l-77.48,65.05-7.52-2.15-.74-2.66c26-22.04,52.02-44.1,78.04-66.16l2.77.94c1.19,2.06,2.76,3.95,4.94,4.98Z"/>
          <path class="st6" d="M1036.71,877.97l1.23,2.35c-23.71,25.27-47.43,50.55-71.16,75.84l-2.87-.6c-.78-.64-1.35-3.38-2.6-2.72-1.88.99-2.71,3.66-4.55,2.89,24.14-27.82,50.33-54.07,74.78-81.51,1.42,1.63,3.33,2.66,5.16,3.77Z"/>
          <path class="st6" d="M1049.23,821.43l-1.73,4.02-21.16,14.78c1.61-.82,2.73-.14,3.95,1.3,1.99.13,3.82.98,5.12,2.5-17.16,5.72-33.96,11.99-53.14,16.77l64.47-43c.54,1.39,1.47,2.56,2.48,3.63Z"/>
          <path class="st6" d="M1208.47,747.4c-.36,2.09.05,4.29,0,6.39,0,.39-.23.86-.13,1.23-4.89,6.87-12.22-.48-6.28-5.29,1.95-1.26,4.02-2.41,6.39-2.32Z"/>
          <path class="st8" d="M1264.7,585.95l-17.83,37.48-29.79,66.07c15.98-5.85,29.47-14.67,43.79-21.24,15.85-7.27,32.3-13.68,48.3-22.12,8.28-4.37,16.29-7.97,24.43-11.3,2.04-.97,2.34-.79,1.17,1.15l-45.45,30.57c-13.35,8.98-26.21,17.6-38.03,27.64-14.54,6.62-29.29,12.57-45.01,18.26l-1.65,16.11c-3.22,6.32-6.81,12.59-10.77,18.81-1.33,1.89-2.88,2.84-4.64,2.83-1.17-.58-2.46-.54-3.96-.45s-1.99,1.78-1.77,3.09c1.15,6.74,18.35,7.67,13.42,24.79-6.45,22.41-6.16,7.27-12.2,17.2l1,2.61c-.72,15.32-1.93,30.82-3.62,46.47l-10.87,75.91c-.39,2.7-4.47,1.79-5.34,3l-22.4-105.55-83.15,73.05-80.07,67.88-80.53,69.52-29.53,25.62,39.42-40.62,40.42-42.4,13.87-14.81,72.8-77.58c17.65-18.81,36.55-36.51,53.54-56.99-21.18,6.53-40.86,12.92-59.94,20.54-7.03,2.81-15.23,2.98-22.15,8.09-.25-3.05,2.19-3.11,3.77-3.87,13.76-6.62,24.9-16.93,37.31-24.31,19.41-11.55,39.17-23.43,58.22-36.81l-95.69-33.19-113.05-39.44c-.59-1.58.69-1.83,3.83-.75,1.88.77,3.63.53,6.26,1.07l90.27,18.56c4.56.94,8.46,1.37,12.41,1.53-.18,1.69,2.18,1.12,3.88,1.42l116.66,20.66-4.78-137.42-3.24-78.65c-.13-3.16-1.68-5.8-.6-9.17,2.84,1.05,1.94,3.59,2.51,6.23l19.62,90.24,20.52,94.84,72.4-123.58,55.68-85.68c6.7-10.3,12.24-20.47,19.68-29.22-17.59,35.56-32.92,69.8-49.12,103.88Z"/>
          <path class="st6" d="M1184.71,794.86c4.42,2.65,15.23,3.97,15.23,3.97l-1.1,5.58-9.04-3.45c-1.35,14.84-5.7,28.91-7.71,42.99l.44-45.14c.03-3.04,1.35-2.58,2.18-3.95Z"/>
          <path class="st6" d="M1202.32,741.26l-.54-4.06c-2.32,3.98-5.04,7.23-6.11,11.34l-7.52,5.16c-.03-1.29.43-2.65,1.07-3.49,6.15-7.97,9.64-16.58,15.41-21.65-.45,4.35-.79,8.57-2.31,12.69Z"/>
          <path class="st7" d="M902.54,711.24c-1.19.1-3.35-.74-3.83.75-5.43-1.9-11.51-1.77-16.54-5.8,7.4,1.52,14.27,2.55,20.37,5.05Z"/>
          <path class="st10" d="M1334.77,636l-1.17-1.15c4.6-1.88,7.83-7.56,14.24-7.58-3.97,3.99-8.89,5.92-13.07,8.73Z"/>
        </g>
      </g>
    </g>
    <path class="st6" d="M1376.28,1035.7c-7.07,65.15-15.59,130.92-24.3,195.88,0,0-8.29-6.35-8.29-6.35,39.74-18.48,88.23-40.76,128.14-58.85,0,0,42.83-19.35,42.83-19.35,0,0-4.75,6.09-4.75,6.09l9.35-55.52c15.27-89.52,32.89-187.81,50.14-277.02,6.85-35.78,14.58-74.69,21.95-110.48,0,0,.25-1.23.25-1.23,0,0,.82-.69.82-.69,0,0,21.85-18.5,21.85-18.5,19.5-16.35,46.3-38.85,65.96-55.03-18.47,17.69-43.81,41.5-62.43,59,0,0-20.95,19.51-20.95,19.51,0,0,1.07-1.92,1.07-1.92-7.35,53.22-16.69,113.76-24.97,167.09-14.47,91.3-31.38,190.96-47.66,281.94-59.96,26.16-126.64,54.73-186.88,80.12,11.83-68.14,24.24-136.91,37.89-204.7h0Z"/>
  </g>
</svg>